<?xml version="1.0" standalone="no"?>
<!DOCTYPE svg PUBLIC "-//W3C//DTD SVG 20010904//EN"
 "http://www.w3.org/TR/2001/REC-SVG-20010904/DTD/svg10.dtd">
<svg version="1.0" xmlns="http://www.w3.org/2000/svg"
 width="1271.000000pt" height="1280.000000pt" viewBox="0 0 1271.000000 1280.000000"
 preserveAspectRatio="xMidYMid meet">
<g transform="translate(0.000000,1280.000000) scale(0.100000,-0.100000)"
fill="#000000" stroke="none">
<path d="M7640 11049 c-726 -79 -1335 -420 -1845 -1032 l-40 -49 -120 -9
c-1114 -88 -2064 -632 -2750 -1575 -326 -447 -547 -974 -640 -1527 -42 -250
-50 -366 -50 -697 0 -320 6 -405 46 -645 113 -678 438 -1296 948 -1805 654
-651 1421 -952 2366 -927 290 8 478 33 738 98 65 16 123 29 129 29 6 0 124
-111 262 -248 138 -136 305 -297 371 -357 953 -872 1834 -1455 2320 -1536 88
-15 262 -6 375 20 187 43 363 120 541 239 106 71 300 228 306 248 2 6 -20 17
-49 25 -65 17 -71 36 -23 80 19 18 35 38 35 44 0 6 -82 33 -182 59 -1110 293
-2142 815 -3051 1543 -103 83 -137 117 -137 137 0 3 45 29 101 57 1166 584
2060 1384 2651 2369 351 586 554 1179 635 1855 25 214 25 750 0 955 -71 574
-247 1071 -529 1496 -434 653 -999 1028 -1718 1139 -124 20 -560 29 -690 14z
m166 -1079 c297 -24 533 -103 767 -256 116 -75 306 -259 399 -384 380 -514
508 -1248 377 -2165 -110 -776 -425 -1523 -919 -2180 -252 -336 -559 -640
-870 -862 -128 -91 -329 -209 -475 -279 -144 -68 -383 -160 -442 -170 -39 -6
-39 -6 -135 103 -435 489 -716 951 -889 1463 -23 69 -50 134 -60 145 -9 11
-25 46 -34 77 -9 32 -20 60 -25 63 -13 8 -179 -160 -242 -245 -73 -99 -102
-150 -140 -251 -30 -79 -32 -92 -33 -219 0 -155 13 -205 96 -370 115 -230 273
-444 540 -731 54 -59 95 -109 92 -113 -22 -22 -255 11 -493 70 -636 157 -1167
524 -1515 1044 -207 309 -345 697 -400 1125 -35 273 -37 689 -5 975 105 927
518 1661 1185 2104 117 78 359 200 496 250 126 46 262 85 273 79 11 -7 3 -77
-20 -173 -26 -111 -26 -373 0 -454 43 -129 202 -323 326 -396 60 -36 201 -89
278 -105 l32 -7 0 159 c0 87 7 205 14 263 50 375 217 696 502 970 324 311 678
457 1160 479 17 0 89 -4 160 -9z"/>
</g>
</svg>
